<svg xmlns="http://www.w3.org/2000/svg" viewBox="0 0 1600 760">
<defs>
 <linearGradient id="wood" x1="0" y1="0" x2="1" y2="1"><stop stop-color="#070809"/><stop offset=".35" stop-color="#34383a"/><stop offset=".58" stop-color="#111315"/><stop offset=".82" stop-color="#4b3a31"/><stop offset="1" stop-color="#08090a"/></linearGradient>
 <filter id="rough"><feTurbulence baseFrequency=".016 .11" numOctaves="4" seed="11" result="n"/><feDisplacementMap in="SourceGraphic" in2="n" scale="19"/><feGaussianBlur stdDeviation=".5"/></filter>
 <filter id="grain"><feTurbulence baseFrequency=".38" numOctaves="3" seed="8" result="g"/><feComposite in="g" in2="SourceGraphic" operator="in" result="c"/><feBlend in="SourceGraphic" in2="c" mode="soft-light"/></filter>
</defs>
<g filter="url(#rough)" fill="none" stroke-linecap="round" stroke-linejoin="round">
 <path d="M-100 622 C150 650 315 535 492 540 C670 545 720 406 892 420 C1077 435 1190 278 1700 248" stroke="#050607" stroke-width="236" opacity=".7"/>
 <path d="M-100 610 C155 638 320 520 493 528 C676 536 722 395 894 410 C1072 426 1213 268 1700 239" stroke="url(#wood)" stroke-width="190"/>
 <path d="M425 548 C525 456 533 350 615 256 C681 181 681 109 653 36" stroke="#181b1c" stroke-width="78"/>
 <path d="M780 444 C892 354 910 234 1020 143 C1080 95 1151 65 1230 46" stroke="#222527" stroke-width="67"/>
 <path d="M1030 374 C1124 353 1192 354 1278 288 C1336 244 1371 178 1389 110" stroke="#16191b" stroke-width="45"/>
 <path d="M212 584 C250 510 250 430 218 365" stroke="#242728" stroke-width="45"/>
</g>
<g opacity=".58" fill="none" stroke="#77706a" stroke-linecap="round">
 <path d="M0 592 C240 615 344 490 502 506 C682 524 750 371 914 390 C1090 409 1265 260 1600 252" stroke-width="5"/>
 <path d="M65 646 C278 641 365 553 510 564 C702 579 764 438 930 449 C1120 460 1274 312 1555 300" stroke-width="3"/>
 <path d="M428 535 C523 448 553 338 617 257" stroke-width="4"/>
</g>
<rect width="1600" height="760" fill="transparent" filter="url(#grain)"/>
</svg>
